<svg width="320" height="80" viewBox="0 0 320 80" fill="none" xmlns="http://www.w3.org/2000/svg">
<path d="M62.2505 28.9964C61.7282 27.0327 60.1831 25.4836 58.2172 24.9527C54.6626 24 40.4008 24 40.4008 24C40.4008 24 26.1463 24 22.5845 24.9527C20.6258 25.4764 19.0807 27.0255 18.5511 28.9964C17.6008 32.56 17.6008 40 17.6008 40C17.6008 40 17.6008 47.44 18.5511 51.0036C19.0734 52.9673 20.6186 54.5163 22.5845 55.0473C26.1463 56 40.4008 56 40.4008 56C40.4008 56 54.6626 56 58.2172 55.0473C60.1758 54.5236 61.721 52.9745 62.2505 51.0036C63.2008 47.44 63.2008 40 63.2008 40C63.2008 40 63.2008 32.56 62.2505 28.9964Z" fill="#FF3000"/>
<path d="M35.8452 46.8582L47.6913 40L35.8452 33.1418V46.8582Z" fill="white"/>
<path d="M192.92 40.1913C192.92 36.1702 196.181 32.9097 200.205 32.9097C204.228 32.9097 207.491 36.1702 207.491 40.1913C207.491 44.2124 204.228 47.4729 200.205 47.4729C196.181 47.4729 192.92 44.2124 192.92 40.1913ZM188.982 40.1913C188.982 46.386 194.006 51.4075 200.205 51.4075C206.403 51.4075 211.427 46.386 211.427 40.1913C211.427 33.9966 206.403 28.9751 200.205 28.9751C194.006 28.9751 188.982 33.9966 188.982 40.1913ZM209.249 28.5304C209.249 29.0488 209.402 29.5556 209.69 29.9868C209.978 30.418 210.388 30.7541 210.867 30.9527C211.346 31.1513 211.874 31.2034 212.382 31.1024C212.891 31.0015 213.359 30.7521 213.726 30.3856C214.093 30.0192 214.343 29.5522 214.444 29.0438C214.545 28.5354 214.494 28.0084 214.295 27.5293C214.097 27.0503 213.761 26.6408 213.33 26.3526C212.899 26.0644 212.392 25.9105 211.873 25.9102H211.872C211.176 25.9106 210.51 26.1867 210.018 26.678C209.526 27.1692 209.25 27.8355 209.249 28.5304V28.5304ZM191.375 57.9711C189.244 57.8741 188.085 57.5194 187.316 57.2197C186.295 56.8227 185.567 56.3498 184.802 55.5859C184.036 54.8219 183.562 54.0949 183.167 53.0751C182.867 52.3062 182.512 51.1484 182.415 49.0187C182.309 46.7163 182.288 46.0247 182.288 40.1915C182.288 34.3583 182.311 33.6686 182.415 31.3642C182.512 29.2346 182.87 28.079 183.167 27.3079C183.564 26.288 184.037 25.5604 184.802 24.7954C185.566 24.0303 186.294 23.5568 187.316 23.1615C188.085 22.8616 189.244 22.5069 191.375 22.4101C193.678 22.3042 194.37 22.2831 200.205 22.2831C206.039 22.2831 206.731 22.306 209.037 22.4101C211.168 22.5071 212.324 22.8644 213.096 23.1615C214.116 23.5568 214.844 24.0314 215.61 24.7954C216.375 25.5594 216.847 26.288 217.245 27.3079C217.545 28.0767 217.9 29.2346 217.997 31.3642C218.103 33.6686 218.124 34.3583 218.124 40.1915C218.124 46.0247 218.103 46.7144 217.997 49.0187C217.9 51.1484 217.543 52.3059 217.245 53.0751C216.847 54.0949 216.374 54.8226 215.61 55.5859C214.845 56.3491 214.116 56.8227 213.096 57.2197C212.327 57.5196 211.168 57.8743 209.037 57.9711C206.733 58.077 206.041 58.0982 200.205 58.0982C194.368 58.0982 193.678 58.077 191.375 57.9711V57.9711ZM191.194 18.4804C188.867 18.5863 187.277 18.955 185.889 19.495C184.451 20.0526 183.233 20.8007 182.017 22.0145C180.8 23.2283 180.054 24.4468 179.496 25.8839C178.956 27.2724 178.587 28.8605 178.481 31.1858C178.373 33.5148 178.348 34.2594 178.348 40.1913C178.348 46.1232 178.373 46.8678 178.481 49.1968C178.587 51.5223 178.956 53.1102 179.496 54.4988C180.054 55.935 180.801 57.1549 182.017 58.3681C183.233 59.5814 184.451 60.3284 185.889 60.8876C187.28 61.4276 188.867 61.7963 191.194 61.9022C193.525 62.0081 194.269 62.0345 200.205 62.0345C206.14 62.0345 206.885 62.0098 209.215 61.9022C211.542 61.7963 213.131 61.4276 214.521 60.8876C215.958 60.3284 217.176 59.5819 218.392 58.3681C219.609 57.1544 220.354 55.935 220.913 54.4988C221.454 53.1102 221.824 51.5221 221.928 49.1968C222.034 46.8661 222.059 46.1232 222.059 40.1913C222.059 34.2594 222.034 33.5148 221.928 31.1858C221.822 28.8603 221.454 27.2715 220.913 25.8839C220.354 24.4476 219.607 23.2302 218.392 22.0145C217.178 20.7988 215.958 20.0526 214.522 19.495C213.131 18.955 211.542 18.5846 209.217 18.4804C206.887 18.3745 206.142 18.3481 200.206 18.3481C194.271 18.3481 193.525 18.3728 191.194 18.4804Z" fill="url(#paint0_radial_63_41)"/>
<path d="M192.92 40.1913C192.92 36.1702 196.181 32.9097 200.205 32.9097C204.228 32.9097 207.491 36.1702 207.491 40.1913C207.491 44.2124 204.228 47.4729 200.205 47.4729C196.181 47.4729 192.92 44.2124 192.92 40.1913ZM188.982 40.1913C188.982 46.386 194.006 51.4075 200.205 51.4075C206.403 51.4075 211.427 46.386 211.427 40.1913C211.427 33.9966 206.403 28.9751 200.205 28.9751C194.006 28.9751 188.982 33.9966 188.982 40.1913ZM209.249 28.5304C209.249 29.0488 209.402 29.5556 209.69 29.9868C209.978 30.418 210.388 30.7541 210.867 30.9527C211.346 31.1513 211.874 31.2034 212.382 31.1024C212.891 31.0015 213.359 30.7521 213.726 30.3856C214.093 30.0192 214.343 29.5522 214.444 29.0438C214.545 28.5354 214.494 28.0084 214.295 27.5293C214.097 27.0503 213.761 26.6408 213.33 26.3526C212.899 26.0644 212.392 25.9105 211.873 25.9102H211.872C211.176 25.9106 210.51 26.1867 210.018 26.678C209.526 27.1692 209.25 27.8355 209.249 28.5304V28.5304ZM191.375 57.9711C189.244 57.8741 188.085 57.5194 187.316 57.2197C186.295 56.8227 185.567 56.3498 184.802 55.5859C184.036 54.8219 183.562 54.0949 183.167 53.0751C182.867 52.3062 182.512 51.1484 182.415 49.0187C182.309 46.7163 182.288 46.0247 182.288 40.1915C182.288 34.3583 182.311 33.6686 182.415 31.3642C182.512 29.2346 182.87 28.079 183.167 27.3079C183.564 26.288 184.037 25.5604 184.802 24.7954C185.566 24.0303 186.294 23.5568 187.316 23.1615C188.085 22.8616 189.244 22.5069 191.375 22.4101C193.678 22.3042 194.37 22.2831 200.205 22.2831C206.039 22.2831 206.731 22.306 209.037 22.4101C211.168 22.5071 212.324 22.8644 213.096 23.1615C214.116 23.5568 214.844 24.0314 215.61 24.7954C216.375 25.5594 216.847 26.288 217.245 27.3079C217.545 28.0767 217.9 29.2346 217.997 31.3642C218.103 33.6686 218.124 34.3583 218.124 40.1915C218.124 46.0247 218.103 46.7144 217.997 49.0187C217.9 51.1484 217.543 52.3059 217.245 53.0751C216.847 54.0949 216.374 54.8226 215.61 55.5859C214.845 56.3491 214.116 56.8227 213.096 57.2197C212.327 57.5196 211.168 57.8743 209.037 57.9711C206.733 58.077 206.041 58.0982 200.205 58.0982C194.368 58.0982 193.678 58.077 191.375 57.9711V57.9711ZM191.194 18.4804C188.867 18.5863 187.277 18.955 185.889 19.495C184.451 20.0526 183.233 20.8007 182.017 22.0145C180.8 23.2283 180.054 24.4468 179.496 25.8839C178.956 27.2724 178.587 28.8605 178.481 31.1858C178.373 33.5148 178.348 34.2594 178.348 40.1913C178.348 46.1232 178.373 46.8678 178.481 49.1968C178.587 51.5223 178.956 53.1102 179.496 54.4988C180.054 55.935 180.801 57.1549 182.017 58.3681C183.233 59.5814 184.451 60.3284 185.889 60.8876C187.28 61.4276 188.867 61.7963 191.194 61.9022C193.525 62.0081 194.269 62.0345 200.205 62.0345C206.14 62.0345 206.885 62.0098 209.215 61.9022C211.542 61.7963 213.131 61.4276 214.521 60.8876C215.958 60.3284 217.176 59.5819 218.392 58.3681C219.609 57.1544 220.354 55.935 220.913 54.4988C221.454 53.1102 221.824 51.5221 221.928 49.1968C222.034 46.8661 222.059 46.1232 222.059 40.1913C222.059 34.2594 222.034 33.5148 221.928 31.1858C221.822 28.8603 221.454 27.2715 220.913 25.8839C220.354 24.4476 219.607 23.2302 218.392 22.0145C217.178 20.7988 215.958 20.0526 214.522 19.495C213.131 18.955 211.542 18.5846 209.217 18.4804C206.887 18.3745 206.142 18.3481 200.206 18.3481C194.271 18.3481 193.525 18.3728 191.194 18.4804Z" fill="url(#paint1_radial_63_41)"/>
<path d="M129.787 42.4996L130.927 35.2638H123.906V30.5606C123.906 28.5821 124.886 26.6488 128.021 26.6488H131.258V20.4871C129.373 20.1868 127.468 20.0243 125.559 20.001C119.78 20.001 116.007 23.4719 116.007 29.7466V35.2638H109.601V42.4996H116.007V60.001H123.906V42.4996H129.787Z" fill="#337FFF"/>
<path d="M299.855 27.2434C298.534 27.8119 297.145 28.2077 295.723 28.4212C296.388 28.3072 297.367 27.1104 297.756 26.626C298.348 25.8953 298.799 25.0612 299.086 24.166C299.086 24.0995 299.152 24.0045 299.086 23.957C299.052 23.9387 299.015 23.9291 298.977 23.9291C298.938 23.9291 298.901 23.9387 298.867 23.957C297.323 24.7932 295.68 25.4315 293.976 25.8567C293.916 25.8748 293.853 25.8764 293.793 25.8614C293.733 25.8463 293.678 25.8151 293.634 25.7712C293.501 25.6132 293.358 25.4641 293.206 25.3247C292.511 24.7021 291.723 24.1925 290.87 23.8145C289.718 23.3421 288.474 23.1375 287.232 23.2161C286.027 23.2923 284.85 23.6156 283.775 24.166C282.716 24.7462 281.785 25.5345 281.039 26.4835C280.254 27.4603 279.687 28.5938 279.377 29.8079C279.121 30.9628 279.092 32.1563 279.291 33.3223C279.291 33.5217 279.291 33.5502 279.12 33.5217C272.348 32.5244 266.792 30.1214 262.252 24.9638C262.052 24.7359 261.948 24.7359 261.786 24.9638C259.811 27.9653 260.77 32.7144 263.239 35.0604C263.572 35.3739 263.914 35.6778 264.275 35.9628C263.142 35.8824 262.038 35.5756 261.026 35.0604C260.836 34.937 260.732 35.0035 260.722 35.2314C260.695 35.5474 260.695 35.8652 260.722 36.1812C260.921 37.6958 261.517 39.1306 262.452 40.3388C263.387 41.5471 264.625 42.4854 266.041 43.058C266.387 43.2058 266.746 43.3172 267.115 43.3904C266.066 43.5968 264.991 43.6289 263.933 43.4854C263.705 43.4379 263.619 43.5614 263.705 43.7798C265.101 47.5791 268.131 48.7379 270.354 49.3838C270.658 49.4313 270.961 49.4313 271.303 49.5073C271.303 49.5073 271.303 49.5073 271.246 49.5643C270.591 50.761 267.941 51.5684 266.725 51.9863C264.506 52.7834 262.14 53.0881 259.792 52.8791C259.421 52.8221 259.336 52.8316 259.241 52.8791C259.146 52.9266 259.241 53.0311 259.345 53.1261C259.82 53.4395 260.295 53.715 260.789 53.9809C262.259 54.7829 263.814 55.42 265.424 55.8806C273.763 58.1792 283.148 56.4885 289.407 50.2671C294.327 45.385 296.056 38.6508 296.056 31.907C296.056 31.6506 296.369 31.4986 296.55 31.3656C297.794 30.3958 298.892 29.2504 299.808 27.9653C299.966 27.7737 300.048 27.5298 300.036 27.2814V27.2814C300.036 27.1389 300.036 27.1674 299.855 27.2434Z" fill="#33CCFF"/>
<defs>
<radialGradient id="paint0_radial_63_41" cx="0" cy="0" r="1" gradientUnits="userSpaceOnUse" gradientTransform="translate(184.156 62.2409) scale(57.0631 57.0288)">
<stop offset="0.09" stop-color="#FA8F21"/>
<stop offset="0.78" stop-color="#D82D7E"/>
</radialGradient>
<radialGradient id="paint1_radial_63_41" cx="0" cy="0" r="1" gradientUnits="userSpaceOnUse" gradientTransform="translate(204.858 64.198) scale(44.9736 44.9466)">
<stop offset="0.64" stop-color="#8C3AAA" stop-opacity="0"/>
<stop offset="1" stop-color="#8C3AAA"/>
</radialGradient>
</defs>
</svg>
