<svg width="44" height="37" viewBox="0 0 44 37" fill="none" xmlns="http://www.w3.org/2000/svg">
<path d="M17.4167 4.625C20.5772 4.625 23.6082 5.68076 25.843 7.56003C28.0778 9.4393 29.3333 11.9881 29.3333 14.6458C29.3333 17.1279 28.2517 19.4096 26.4733 21.1671L26.9683 21.5833H28.4167L37.5833 29.2917L34.8333 31.6042L25.6667 23.8958V22.6779L25.1717 22.2617C23.0093 23.8138 20.2596 24.6665 17.4167 24.6667C14.2562 24.6667 11.2251 23.6109 8.99031 21.7316C6.7555 19.8524 5.5 17.3035 5.5 14.6458C5.5 11.9881 6.7555 9.4393 8.99031 7.56003C11.2251 5.68076 14.2562 4.625 17.4167 4.625M17.4167 7.70833C12.8333 7.70833 9.16667 10.7917 9.16667 14.6458C9.16667 18.5 12.8333 21.5833 17.4167 21.5833C22 21.5833 25.6667 18.5 25.6667 14.6458C25.6667 10.7917 22 7.70833 17.4167 7.70833Z" fill="#FFFCFC"/>
</svg>
