<svg width="43" height="40" viewBox="0 0 43 40" fill="none" xmlns="http://www.w3.org/2000/svg">
<path d="M12.8964 31.7295C10.5321 31.7295 8.61913 33.4594 8.61913 35.5738C8.61913 37.6881 10.5321 39.4181 12.8964 39.4181C15.2608 39.4181 17.1953 37.6881 17.1953 35.5738C17.1953 33.4594 15.2608 31.7295 12.8964 31.7295ZM0 2.89719C0 3.95438 0.967234 4.81934 2.14941 4.81934H4.29882L12.0367 19.4085L9.13498 24.0985C7.56592 26.6742 9.62935 29.8073 12.8964 29.8073H36.5399C37.7221 29.8073 38.6893 28.9424 38.6893 27.8852C38.6893 26.828 37.7221 25.963 36.5399 25.963H12.8964L15.2608 22.1187H31.2739C32.8859 22.1187 34.3046 21.3306 35.0354 20.1389L42.7302 7.66413C42.9114 7.37278 43.0043 7.04418 42.9998 6.71085C42.9954 6.37751 42.8937 6.051 42.7047 5.76362C42.5158 5.47624 42.2463 5.23795 41.9228 5.07233C41.5993 4.90671 41.233 4.81951 40.8602 4.81934H9.04901L7.6089 2.07067C7.43616 1.74257 7.16247 1.46527 6.81987 1.27123C6.47728 1.07719 6.07996 0.974454 5.67444 0.975039H2.14941C0.967234 0.975039 0 1.84001 0 2.89719V2.89719ZM34.3905 31.7295C32.0262 31.7295 30.1132 33.4594 30.1132 35.5738C30.1132 37.6881 32.0262 39.4181 34.3905 39.4181C36.7549 39.4181 38.6893 37.6881 38.6893 35.5738C38.6893 33.4594 36.7549 31.7295 34.3905 31.7295Z" fill="white"/>
</svg>
