<svg width="40" height="29" viewBox="0 0 40 29" fill="none" xmlns="http://www.w3.org/2000/svg">
<path d="M2.19651 29C1.57416 29 1.05286 28.768 0.632594 28.304C0.210865 27.8416 0 27.2681 0 26.5833C0 25.8986 0.210865 25.3251 0.632594 24.8627C1.05286 24.3987 1.57416 24.1667 2.19651 24.1667H37.3406C37.9629 24.1667 38.4842 24.3987 38.9045 24.8627C39.3262 25.3251 39.5371 25.8986 39.5371 26.5833C39.5371 27.2681 39.3262 27.8416 38.9045 28.304C38.4842 28.768 37.9629 29 37.3406 29H2.19651ZM2.19651 16.9167C1.57416 16.9167 1.05286 16.6847 0.632594 16.2207C0.210865 15.7583 0 15.1847 0 14.5C0 13.8153 0.210865 13.2409 0.632594 12.7769C1.05286 12.3145 1.57416 12.0833 2.19651 12.0833H37.3406C37.9629 12.0833 38.4842 12.3145 38.9045 12.7769C39.3262 13.2409 39.5371 13.8153 39.5371 14.5C39.5371 15.1847 39.3262 15.7583 38.9045 16.2207C38.4842 16.6847 37.9629 16.9167 37.3406 16.9167H2.19651ZM2.19651 4.83333C1.57416 4.83333 1.05286 4.60214 0.632594 4.13975C0.210865 3.67575 0 3.10139 0 2.41667C0 1.73194 0.210865 1.15758 0.632594 0.693584C1.05286 0.231195 1.57416 0 2.19651 0H37.3406C37.9629 0 38.4842 0.231195 38.9045 0.693584C39.3262 1.15758 39.5371 1.73194 39.5371 2.41667C39.5371 3.10139 39.3262 3.67575 38.9045 4.13975C38.4842 4.60214 37.9629 4.83333 37.3406 4.83333H2.19651Z" fill="#D9D9D9"/>
</svg>
