<svg width="43" height="40" viewBox="0 0 43 40" fill="none" xmlns="http://www.w3.org/2000/svg">
<path d="M21.5 34.0361C16.125 34.0361 11.3735 31.5757 8.6 27.8852C8.6645 24.0409 17.2 21.9265 21.5 21.9265C25.8 21.9265 34.3355 24.0409 34.4 27.8852C32.9786 29.7774 31.0586 31.328 28.8091 32.4007C26.5595 33.4733 24.0495 34.0349 21.5 34.0361M21.5 6.74149C23.2106 6.74149 24.8512 7.34903 26.0608 8.43045C27.2705 9.51187 27.95 10.9786 27.95 12.508C27.95 14.0373 27.2705 15.504 26.0608 16.5855C24.8512 17.6669 23.2106 18.2744 21.5 18.2744C19.7894 18.2744 18.1488 17.6669 16.9392 16.5855C15.7296 15.504 15.05 14.0373 15.05 12.508C15.05 10.9786 15.7296 9.51187 16.9392 8.43045C18.1488 7.34903 19.7894 6.74149 21.5 6.74149M21.5 0.975037C18.6766 0.975037 15.8808 1.47222 13.2723 2.43819C10.6638 3.40416 8.29366 4.82001 6.2972 6.60489C2.26517 10.2096 0 15.0987 0 20.1966C0 25.2944 2.26517 30.1835 6.2972 33.7882C8.29366 35.5731 10.6638 36.989 13.2723 37.9549C15.8808 38.9209 18.6766 39.4181 21.5 39.4181C27.2022 39.4181 32.6708 37.393 36.7028 33.7882C40.7348 30.1835 43 25.2944 43 20.1966C43 9.56706 33.325 0.975037 21.5 0.975037Z" fill="white"/>
</svg>
